<svg width="23" height="23" viewBox="0 0 23 23" version="1.1" xmlns="http://www.w3.org/2000/svg" xmlns:xlink="http://www.w3.org/1999/xlink">
<title>Rectangle</title>
<desc>Created using Figma</desc>
<g id="Canvas" transform="translate(-308 -1444)">
<g id="Rectangle">
<use xlink:href="#path0_fill" transform="translate(308.5 1444.5)" fill="#FFFFFF"/>
<use xlink:href="#path1_stroke" transform="translate(308.5 1444.5)" fill="#ABB2B8"/>
</g>
</g>
<defs>
<path id="path0_fill" fill-rule="evenodd" d="M 0 4C 0 1.79086 1.79086 0 4 0L 18 0C 20.2091 0 22 1.79086 22 4L 22 18C 22 20.2091 20.2091 22 18 22L 4 22C 1.79086 22 0 20.2091 0 18L 0 4Z"/>
<path id="path1_stroke" d="M 4 0.5L 18 0.5L 18 -0.5L 4 -0.5L 4 0.5ZM 21.5 4L 21.5 18L 22.5 18L 22.5 4L 21.5 4ZM 18 21.5L 4 21.5L 4 22.5L 18 22.5L 18 21.5ZM 0.5 18L 0.5 4L -0.5 4L -0.5 18L 0.5 18ZM 4 21.5C 2.067 21.5 0.5 19.933 0.5 18L -0.5 18C -0.5 20.4853 1.51472 22.5 4 22.5L 4 21.5ZM 21.5 18C 21.5 19.933 19.933 21.5 18 21.5L 18 22.5C 20.4853 22.5 22.5 20.4853 22.5 18L 21.5 18ZM 18 0.5C 19.933 0.5 21.5 2.067 21.5 4L 22.5 4C 22.5 1.51472 20.4853 -0.5 18 -0.5L 18 0.5ZM 4 -0.5C 1.51472 -0.5 -0.5 1.51472 -0.5 4L 0.5 4C 0.5 2.067 2.067 0.5 4 0.5L 4 -0.5Z"/>
</defs>
</svg>
