<?xml version="1.0" encoding="iso-8859-1"?>
<!-- Generator: Adobe Illustrator 19.0.0, SVG Export Plug-In . SVG Version: 6.00 Build 0)  -->
<svg version="1.1" id="Layer_1" xmlns="http://www.w3.org/2000/svg" xmlns:xlink="http://www.w3.org/1999/xlink" x="0px" y="0px"
	 viewBox="0 0 512 512" style="enable-background:new 0 0 512 512;" xml:space="preserve">
<path style="fill:#DD512A;" d="M503.742,177.735H334.268V8.258c0-4.56-3.696-8.258-8.258-8.258H185.993
	c-4.562,0-8.258,3.698-8.258,8.258v169.477H8.258c-4.562,0-8.258,3.698-8.258,8.258V326.01c0,4.56,3.696,8.258,8.258,8.258h169.475
	v169.474c0,4.56,3.696,8.258,8.258,8.258h140.017c4.562,0,8.258-3.698,8.258-8.258V334.268h169.475c4.562,0,8.258-3.698,8.258-8.258
	V185.993C512,181.433,508.304,177.735,503.742,177.735z"/>
<g>
</g>
<g>
</g>
<g>
</g>
<g>
</g>
<g>
</g>
<g>
</g>
<g>
</g>
<g>
</g>
<g>
</g>
<g>
</g>
<g>
</g>
<g>
</g>
<g>
</g>
<g>
</g>
<g>
</g>
</svg>
