<?xml version="1.0" encoding="iso-8859-1"?>
<!-- Generator: Adobe Illustrator 19.0.0, SVG Export Plug-In . SVG Version: 6.00 Build 0)  -->
<svg version="1.1" id="Layer_1" xmlns="http://www.w3.org/2000/svg" xmlns:xlink="http://www.w3.org/1999/xlink" x="0px" y="0px"
	 viewBox="0 0 512 512" style="enable-background:new 0 0 512 512;" xml:space="preserve">
<g>
	<path style="fill:#E69629;" d="M507.314,366.742c-8.093-9.926-32.001-11.001-41.904-11.001c-8.857,0-22.312,0.868-36.261,5.05
		c-9.06,2.841-17.114,6.797-24.511,12.015c-6.914,4.766-10.006,12.267-7.873,19.113c1.991,6.401,7.95,10.534,15.175,10.534
		c0.514,0,1.053-0.021,1.606-0.065c0.473-0.037,0.943-0.104,1.406-0.197c1.809-0.362,3.946-0.657,6.349-0.939
		c-51.054,19.048-106.244,29.091-160.115,29.091c-82.455,0-165.901-22.208-234.969-62.532c-0.098-0.055-0.197-0.112-0.296-0.167
		c-3.025-1.656-6.185-2.495-9.387-2.495c-7.152,0-13.276,4.231-15.604,10.778c-2.365,6.656-0.13,14.073,5.699,19.003
		c67.73,61.489,156.184,95.352,249.102,95.352c63.55,0,132.013-18.341,183.164-49.067c6.368-3.652,12.36-7.514,17.86-11.511
		c-1.931,5.291-4.304,11.435-7.218,18.572c-0.02,0.052-0.041,0.106-0.063,0.161c-2.121,5.414-1.645,11.004,1.312,15.336
		c2.784,4.085,7.511,6.524,12.634,6.524c4.093,0,8.164-1.476,11.781-4.267c0.14-0.111,0.28-0.224,0.419-0.34
		c25.714-21.743,35.845-59.535,36.378-79.631c0.003-0.107,0.003-0.216,0.003-0.323v-2.958c0-5.78-1.455-11.279-3.994-15.09
		C507.794,367.361,507.561,367.044,507.314,366.742z"/>
	<path style="fill:#E69629;" d="M386.345,141.278c0.219-31.816,0.447-64.714-26.666-90.031
		c-30.016-27.398-74.333-29.529-87.199-29.529h-10.889c-0.234,0-0.47,0.008-0.705,0.023c-64.4,3.727-107.182,36.38-117.432,89.6
		c-1.658,7.108,0.273,12.36,2.209,15.534c2.944,4.827,8.003,8.296,14.245,9.772c0.419,0.099,0.839,0.174,1.263,0.229l50.743,6.454
		c1.229,0.158,2.472,0.124,3.688-0.094c9.715-1.744,16.75-9.031,18.864-19.513c3.94-16.907,18.822-21.158,27.762-22.156h2.991
		c7.761,0,15.349,3.311,18.968,8.26c4.324,6.775,4.34,17.167,4.283,27.289c-9,0.72-18.749,1.585-28.521,2.877
		c-21.174,2.74-43.366,6.511-62.301,15.448c-40.381,16.534-63.53,51.72-63.53,96.597c0,28.778,9.143,52.765,26.435,69.367
		c16.143,15.497,38.203,23.687,63.797,23.687c14.255,0,27.012-1.549,40.155-4.876c0.226-0.057,0.45-0.12,0.67-0.19
		c15.555-4.901,29.153-13.054,43.749-26.473c5.385,7.526,11.075,14.476,23.737,25.119c1,0.84,2.131,1.515,3.343,1.998
		c8.867,3.522,17.85,2.549,24.578-2.563c0.146-0.111,0.293-0.226,0.432-0.343c11.277-9.396,30.003-25.486,40.102-34.626
		c8.374-7.02,9.746-18.377,3.47-29.047c-0.273-0.466-0.58-0.915-0.915-1.343l-1.965-2.488c-8.94-11.298-15.401-19.461-15.401-38.174
		v-81.806C386.305,147.253,386.323,144.252,386.345,141.278z M280.155,250.306c-0.153,0.257-0.296,0.52-0.429,0.787
		c-4.296,8.58-11.555,14.734-20.018,17.013c-1.196,0.117-2.289,0.325-3.288,0.515c-0.686,0.132-1.721,0.328-2.098,0.328
		c-17.679,0-19.588-18.17-19.588-25.98c0-19.675,9.239-31.185,29.943-37.28c6.698-1.539,14.638-2.545,23.711-3.01l0.007,2.867
		C288.448,223.419,288.485,236.331,280.155,250.306z"/>
</g>
<g>
</g>
<g>
</g>
<g>
</g>
<g>
</g>
<g>
</g>
<g>
</g>
<g>
</g>
<g>
</g>
<g>
</g>
<g>
</g>
<g>
</g>
<g>
</g>
<g>
</g>
<g>
</g>
<g>
</g>
</svg>
