<?xml version="1.0" encoding="iso-8859-1"?>
<!-- Generator: Adobe Illustrator 19.0.0, SVG Export Plug-In . SVG Version: 6.00 Build 0)  -->
<svg version="1.1" id="Layer_1" xmlns="http://www.w3.org/2000/svg" xmlns:xlink="http://www.w3.org/1999/xlink" x="0px" y="0px"
	 viewBox="0 0 511.999 511.999" style="enable-background:new 0 0 511.999 511.999;" xml:space="preserve">
<path style="fill:#D7143A;" d="M305.01,507.39c-50.143,7.692-100.565,7.692-147.549-15.203
	C76.855,452.893,34.102,388.234,32.235,298.03c-0.809-39.956-0.15-79.914-0.15-119.871c0.027-45.382,0-90.764,0.027-136.142
	c0-16.983,7.414-29.768,22.588-37.357C69.827-2.91,84.696-1.072,98.252,8.83c10.866,7.999,15.326,19.278,15.302,32.729
	c-0.079,84.78-0.055,169.529-0.026,254.308c0,67.123,42.907,120.405,109.023,131.229c41.076,6.699,82.053,4.686,118.57-19.941
	c44.11-29.745,65.807-84.241,54.016-136.296c-11.817-52.082-54.862-92.214-107.571-99.138c-14.643-1.939-29.566-1.505-44.389-1.683
	c-23.301-0.307-41.356-16.22-42.706-38.098c-1.43-22.844,13.955-41.079,37.924-43.245c126.743-11.354,216.41,70.494,237.446,169.253
	C500.032,371.78,419.99,489.741,305.01,507.39L305.01,507.39z"/>
<g>
</g>
<g>
</g>
<g>
</g>
<g>
</g>
<g>
</g>
<g>
</g>
<g>
</g>
<g>
</g>
<g>
</g>
<g>
</g>
<g>
</g>
<g>
</g>
<g>
</g>
<g>
</g>
<g>
</g>
</svg>
