<?xml version="1.0" encoding="iso-8859-1"?>
<!-- Generator: Adobe Illustrator 19.0.0, SVG Export Plug-In . SVG Version: 6.00 Build 0)  -->
<svg version="1.1" id="Layer_1" xmlns="http://www.w3.org/2000/svg" xmlns:xlink="http://www.w3.org/1999/xlink" x="0px" y="0px"
	 viewBox="0 0 512 512" style="enable-background:new 0 0 512 512;" xml:space="preserve">
<path style="fill:#385C8E;" d="M501.507,0H10.489C4.697,0,0,4.697,0,10.491v491.017C0,507.303,4.697,512,10.489,512h491.018
	c5.796,0,10.493-4.697,10.493-10.493V10.491C512,4.697,507.303,0,501.507,0z M238.324,51.18c4.693,0,8.533,3.84,8.533,8.533v178.609
	c0,4.693-3.84,8.533-8.533,8.533H59.713c-4.693,0-8.533-3.84-8.533-8.533V59.713c0-4.693,3.84-8.533,8.533-8.533
	C59.713,51.18,238.324,51.18,238.324,51.18z M273.674,460.82c-4.693,0-8.533-3.84-8.533-8.533V273.676
	c0-4.693,3.84-8.533,8.533-8.533h178.611c4.693,0,8.533,3.84,8.533,8.533v178.609c0,4.693-3.84,8.533-8.533,8.533H273.674V460.82z"
	/>
<g>
</g>
<g>
</g>
<g>
</g>
<g>
</g>
<g>
</g>
<g>
</g>
<g>
</g>
<g>
</g>
<g>
</g>
<g>
</g>
<g>
</g>
<g>
</g>
<g>
</g>
<g>
</g>
<g>
</g>
</svg>
