<?xml version="1.0" encoding="iso-8859-1"?>
<!-- Generator: Adobe Illustrator 19.0.0, SVG Export Plug-In . SVG Version: 6.00 Build 0)  -->
<svg version="1.1" id="Layer_1" xmlns="http://www.w3.org/2000/svg" xmlns:xlink="http://www.w3.org/1999/xlink" x="0px" y="0px"
	 viewBox="0 0 512 512" style="enable-background:new 0 0 512 512;" xml:space="preserve">
<path style="fill:#AFDB35;" d="M179.594,319.567v-84.623c-57.975,16.067-79.384,51.096-85.666,84.623H179.594z M248.364,141.957
	v45.838c2.519-0.027,5.1-0.056,7.636-0.056c70.699,0,134.706,17.527,181.035,45.867C483.328,261.956,512,301.146,512,344.397
	c0,8.73-1.169,17.297-3.415,25.646h-12.216h-78.423H263.678v-15.324v-35.154v-78.266c28.03,0.527,50.596,3.977,68.763,9.474v68.794
	h85.651c-8.513-45.426-44.827-93.611-162.063-93.611c-2.563,0-5.146,0.031-7.644,0.063v93.548v50.441h-68.791H94.09H17.225H3.405
	C1.178,361.656,0,353.091,0,344.359c0-43.233,28.672-82.403,74.982-110.756c28.88-17.686,64.623-31.14,104.614-38.77v-46.59
	C201.755,144.466,224.802,142.31,248.364,141.957z"/>
<g>
</g>
<g>
</g>
<g>
</g>
<g>
</g>
<g>
</g>
<g>
</g>
<g>
</g>
<g>
</g>
<g>
</g>
<g>
</g>
<g>
</g>
<g>
</g>
<g>
</g>
<g>
</g>
<g>
</g>
</svg>
