<?xml version="1.0" encoding="iso-8859-1"?>
<!-- Generator: Adobe Illustrator 19.0.0, SVG Export Plug-In . SVG Version: 6.00 Build 0)  -->
<svg version="1.1" id="Layer_1" xmlns="http://www.w3.org/2000/svg" xmlns:xlink="http://www.w3.org/1999/xlink" x="0px" y="0px"
	 viewBox="0 0 512 512" style="enable-background:new 0 0 512 512;" xml:space="preserve">
<g>
	<path style="fill:#1D3366;" d="M196.268,102.402h-34.152c-4.693,0-8.533,3.84-8.533,8.533v34.154c0,4.693,3.84,8.533,8.533,8.533
		h34.152c4.693,0,8.533-3.84,8.533-8.533v-34.154C204.801,106.242,200.961,102.402,196.268,102.402z"/>
	<path style="fill:#1D3366;" d="M196.268,174.058h-34.152c-4.693,0-8.533,3.84-8.533,8.533v157.02c0,4.693,3.84,8.533,8.533,8.533
		h34.152c4.693,0,8.533-3.84,8.533-8.533v-157.02C204.801,177.898,200.961,174.058,196.268,174.058z"/>
	<path style="fill:#1D3366;" d="M503.467,174.058H387.423c-4.693,0-8.533,3.84-8.533,8.533v157.055c0,4.693,3.84,8.533,8.533,8.533
		h64.861c4.693,0,8.533,3.84,8.533,8.533v3.415c0,4.693-3.84,8.533-8.533,8.533h-64.861c-4.693,0-8.533,3.84-8.533,8.533v23.87
		c0,4.693,3.84,8.533,8.533,8.533h116.044c4.693,0,8.533-3.84,8.533-8.533V182.592C512,177.898,508.16,174.058,503.467,174.058z
		 M460.817,298.67c0,4.693-3.84,8.533-8.533,8.533h-13.64c-4.692,0-8.533-3.84-8.533-8.533v-75.097c0-4.693,3.842-8.533,8.533-8.533
		h13.64c4.693,0,8.533,3.84,8.533,8.533V298.67z"/>
	<path style="fill:#1D3366;" d="M124.577,102.402H90.461c-4.693,0-8.533,3.84-8.533,8.533v54.59c0,4.693-3.84,8.533-8.533,8.533
		H8.533c-4.693,0-8.533,3.84-8.533,8.533v157.02c0,4.693,3.84,8.533,8.533,8.533h116.044c4.693,0,8.533-3.84,8.533-8.533V110.935
		C133.111,106.242,129.271,102.402,124.577,102.402z M81.927,298.67c0,4.693-3.84,8.533-8.533,8.533H59.751
		c-4.693,0-8.533-3.84-8.533-8.533v-75.097c0-4.693,3.84-8.533,8.533-8.533h13.643c4.693,0,8.533,3.84,8.533,8.533
		C81.927,223.572,81.927,298.67,81.927,298.67z"/>
	<path style="fill:#1D3366;" d="M349.884,174.058h-116.08c-4.693,0-8.533,3.84-8.533,8.533v157.055c0,4.693,3.84,8.533,8.533,8.533
		h64.864c4.693,0,8.533,3.84,8.533,8.533v3.415c0,4.693-3.84,8.533-8.533,8.533h-64.864c-4.693,0-8.533,3.84-8.533,8.533v23.87
		c0,4.693,3.84,8.533,8.533,8.533h116.08c4.693,0,8.533-3.84,8.533-8.533V182.592C358.418,177.898,354.578,174.058,349.884,174.058z
		 M307.202,298.67c0,4.693-3.84,8.533-8.533,8.533h-13.647c-4.693,0-8.533-3.84-8.533-8.533v-75.097c0-4.693,3.84-8.533,8.533-8.533
		h13.647c4.693,0,8.533,3.84,8.533,8.533V298.67z"/>
</g>
<g>
</g>
<g>
</g>
<g>
</g>
<g>
</g>
<g>
</g>
<g>
</g>
<g>
</g>
<g>
</g>
<g>
</g>
<g>
</g>
<g>
</g>
<g>
</g>
<g>
</g>
<g>
</g>
<g>
</g>
</svg>
