<?xml version="1.0" encoding="iso-8859-1"?>
<!-- Generator: Adobe Illustrator 19.0.0, SVG Export Plug-In . SVG Version: 6.00 Build 0)  -->
<svg version="1.1" id="Layer_1" xmlns="http://www.w3.org/2000/svg" xmlns:xlink="http://www.w3.org/1999/xlink" x="0px" y="0px"
	 viewBox="0 0 512.004 512.004" style="enable-background:new 0 0 512.004 512.004;" xml:space="preserve">
<path style="fill:#69A15F;" d="M474.284,510.043L361.357,246.247L255.961,0L143.687,262.414L37.723,510.041
	c-0.364,0.844-0.338,1.405-0.234,1.56c0.104,0.155,0.605,0.399,1.525,0.399h166.448c2.425,0,4.396-1.973,4.396-4.396v-92.912
	c0-3.549-2.45-8.888-5.135-11.2l-29.498-25.418c-5.132-4.423-7.217-12.164-4.75-17.624c1.635-3.614,4.956-5.772,8.886-5.772
	c2.706,0,5.392,1.016,7.773,2.939l22.728,18.342v-68.655c0-7.272,5.914-13.189,13.189-13.189h47.78
	c7.272,0,13.189,5.918,13.189,13.189v37.547c0,0.869,0.206,1.286,0.278,1.363c0.192-0.037,0.605-0.072,1.271-0.399l29.088-14.322
	c1.862-0.916,3.92-1.4,5.956-1.4c4.963,0,9.287,2.706,11.286,7.066c2.858,6.224-0.037,13.917-6.457,17.151l-35.989,18.117
	c-2.844,1.431-5.434,5.634-5.434,8.819v24.288c0,0.855,0.199,1.273,0.267,1.351c0.151-0.053,0.559-0.09,1.229-0.424l64.304-32.194
	c1.871-0.937,3.95-1.433,6.004-1.433c4.94,0,9.236,2.708,11.218,7.069c2.826,6.229-0.076,13.931-6.475,17.169l-71.115,35.998
	c-2.844,1.44-5.434,5.654-5.434,8.842v65.697c0,2.423,1.971,4.396,4.396,4.396h184.577c0.918,0,1.423-0.246,1.521-0.399
	C474.618,511.448,474.644,510.889,474.284,510.043z"/>
<g>
</g>
<g>
</g>
<g>
</g>
<g>
</g>
<g>
</g>
<g>
</g>
<g>
</g>
<g>
</g>
<g>
</g>
<g>
</g>
<g>
</g>
<g>
</g>
<g>
</g>
<g>
</g>
<g>
</g>
</svg>
