<?xml version="1.0" encoding="iso-8859-1"?>
<!-- Generator: Adobe Illustrator 19.0.0, SVG Export Plug-In . SVG Version: 6.00 Build 0)  -->
<svg version="1.1" id="Layer_1" xmlns="http://www.w3.org/2000/svg" xmlns:xlink="http://www.w3.org/1999/xlink" x="0px" y="0px"
	 viewBox="0 0 512.002 512.002" style="enable-background:new 0 0 512.002 512.002;" xml:space="preserve">
<g>
	<path style="fill:#73A1FB;" d="M493.025,298.457c23.341-23.366,23.341-61.519,0-84.911l-0.937-0.944l-205.515,205.64
		c-2.243,2.224-4.68,4.192-7.264,5.898c-4.007,2.647-8.387,4.632-12.99,5.939c-4.14,1.174-8.463,1.802-12.887,1.806l-4.256-0.022
		c-2.14-0.193-4.27-0.539-6.369-1.029c-3.96-0.922-7.82-2.379-11.477-4.35c-3.871-2.091-7.508-4.755-10.776-8.025
		c-0.063-0.065-0.13-0.138-0.193-0.208c-0.06-0.055-0.123-0.109-0.179-0.167L84.95,282.605c-8.863-8.88-13.766-20.588-13.766-33.137
		c0-12.51,4.903-24.278,13.766-33.118l40.006-39.947c8.704-8.689,20.735-13.619,33.116-13.662c12.327,0,24.404,5.033,33.05,13.778
		l62.35,62.449l132.454-132.558l-88.184-88.183c-23.347-23.312-61.56-23.312-84.928-0.002L17.512,213.546
		c-23.347,23.33-23.351,61.545,0,84.911l195.342,195.318c23.327,23.31,61.541,23.31,84.887,0.002L493.025,298.457z"/>
	<path style="fill:#73A1FB;" d="M193.614,222.397l-12.674-12.674c-0.003-0.002-0.003-0.007-0.01-0.012l-11.986-11.986
		c-6.571-6.571-17.186-6.612-23.817-0.14l-0.014-0.007l-39.947,39.814c-6.6,6.572-6.63,16.952-0.036,23.527l105.878,105.753
		l30.824,30.783c6.634,6.629,17.483,6.625,24.121,0.002c0.007-0.005,0.01-0.01,0.014-0.015l30.07-30.104l211.05-211.284
		c6.48-6.501,6.567-17.963,0.164-24.559c-0.049-0.053-0.094-0.109-0.143-0.16l-19.837-20.323l-20.327-19.838
		c-5.733-5.724-15.304-6.415-22.001-2.15c-0.973,0.618-1.886,1.341-2.717,2.169L261.435,271.778l-9.289,9.291l-11.73-11.728
		l-46.814-46.93L193.614,222.397z"/>
</g>
<g>
</g>
<g>
</g>
<g>
</g>
<g>
</g>
<g>
</g>
<g>
</g>
<g>
</g>
<g>
</g>
<g>
</g>
<g>
</g>
<g>
</g>
<g>
</g>
<g>
</g>
<g>
</g>
<g>
</g>
</svg>
