<?xml version="1.0" encoding="iso-8859-1"?>
<!-- Generator: Adobe Illustrator 19.0.0, SVG Export Plug-In . SVG Version: 6.00 Build 0)  -->
<svg version="1.1" id="Layer_1" xmlns="http://www.w3.org/2000/svg" xmlns:xlink="http://www.w3.org/1999/xlink" x="0px" y="0px"
	 viewBox="0 0 512 512" style="enable-background:new 0 0 512 512;" xml:space="preserve">
<path style="fill:#CE5498;" d="M432.516,14.862C423.44,1.32,405.724-0.184,390.87,0.016c-89.51,0.403-179.053,0.171-268.604,0.101
	c-5.139,0.159-10.269,0.428-15.333,1.418C90.502,4.265,76.982,18.069,74.096,34.368c-2.637,16.07-1.118,32.469-1.319,48.674
	c-0.034,131.483,0.101,262.97-0.101,394.453c0.37,8.11,0.664,16.961,5.693,23.796c7.927,10.831,23.989,13.534,35.71,7.707
	c7.064-3.847,12.293-10.11,17.556-16.003c38.467-45.409,78.461-89.533,116.85-135.02c4.239-4.809,9.209-10.076,16.241-9.68
	c27.691-1.42,55.45,0.93,83.176-0.497c9.414-0.493,19.22-3.183,26.047-10.033c9.303-9.143,12.192-22.427,15.14-34.654
	c15.734-76.268,29.983-152.854,45.776-229.12C438.579,54.745,444.079,32.518,432.516,14.862z M363.446,138.394
	c-2.285,7.564-12.126,7.054-18.749,7.59c-33.294,0.664-66.594-0.8-99.854,0.16c-10.17-0.396-21.17,5.994-21.799,17.027
	c-2.157,13.754-1.283,34.98,15.971,38.004c32.596,3.644,65.628-1.2,98.258,1.956c10.865,0.326,11.066,13.15,9.37,21.067
	c-3.736,19.169-6.583,38.649-12.184,57.417c-1.427,6.214-7.33,9.474-13.384,9.523c-27.5,2.301-55.166-0.951-82.657,1.007
	c-11.271,0.16-17.987,10.271-24.653,17.86c-27.727,34.084-55.62,68.007-84.244,101.34c-1.125-107.233,0.102-214.509-0.628-321.777
	c0.234-8.02-0.171-16.399,2.777-24.023c4.217-8.876,15.311-8.649,23.663-9.114c65.294,0.07,130.62,0.237,195.92-0.067
	c10.831,0.333,22.223-1.466,25.047,8.18C380.036,77.314,368.522,121.589,363.446,138.394z"/>
<g>
</g>
<g>
</g>
<g>
</g>
<g>
</g>
<g>
</g>
<g>
</g>
<g>
</g>
<g>
</g>
<g>
</g>
<g>
</g>
<g>
</g>
<g>
</g>
<g>
</g>
<g>
</g>
<g>
</g>
</svg>
