<?xml version="1.0" encoding="iso-8859-1"?>
<!-- Generator: Adobe Illustrator 19.0.0, SVG Export Plug-In . SVG Version: 6.00 Build 0)  -->
<svg version="1.1" id="Layer_1" xmlns="http://www.w3.org/2000/svg" xmlns:xlink="http://www.w3.org/1999/xlink" x="0px" y="0px"
	 viewBox="0 0 512 512" style="enable-background:new 0 0 512 512;" xml:space="preserve">
<path style="fill:#DD512A;" d="M256,0C114.654,0,0,114.623,0,255.99C0,397.358,114.654,512,256,512c141.36,0,256-114.642,256-256.01
	C512,114.623,397.36,0,256,0z M171.291,107.73c-1.611-0.442-6.028-2.458-7.315-0.442l-0.02,4.936c0.346,2.993,0.7,5.97,1.056,8.965
	c4.309,35.75,5.951,73.479-5.147,108.192c-5.949,18.7-16.826,35.787-31.314,49.036c-11.981,10.981-29.126,22.096-46.136,21.274
	c-3.169-0.097-6.298-0.635-9.411-1.71c-18.231-6.124-19.294-25.824-19.379-41.991c-0.164-17.394,1.966-34.751,6.267-51.608
	c1.297-5.222,2.92-10.291,4.666-15.398C84.48,131.249,130.529,84.231,188.407,63.724c21.668-7.68,44.614-11.539,67.593-11.539
	c67.7,0,132.057,34.79,169.257,91.315c9.312,14.169,16.78,29.51,22.253,45.522h-0.077c1.756,5.088,3.386,10.138,4.731,15.36
	c4.273,16.876,6.376,34.234,6.26,51.628c-0.259,32.773-10.779,68.85-51.83,51.531c-19.441-8.178-35.633-24.846-47.681-41.682
	c-13.882-19.374-28.052-38.381-43.546-56.448c-14.611-16.934-30.107-33.138-47-47.845c-16.782-14.65-35.06-28.59-55.257-38.265
	C199.631,116.753,185.709,111.857,171.291,107.73z"/>
<g>
</g>
<g>
</g>
<g>
</g>
<g>
</g>
<g>
</g>
<g>
</g>
<g>
</g>
<g>
</g>
<g>
</g>
<g>
</g>
<g>
</g>
<g>
</g>
<g>
</g>
<g>
</g>
<g>
</g>
</svg>
