<?xml version="1.0" encoding="iso-8859-1"?>
<!-- Generator: Adobe Illustrator 19.0.0, SVG Export Plug-In . SVG Version: 6.00 Build 0)  -->
<svg version="1.1" id="Layer_1" xmlns="http://www.w3.org/2000/svg" xmlns:xlink="http://www.w3.org/1999/xlink" x="0px" y="0px"
	 viewBox="0 0 512.002 512.002" style="enable-background:new 0 0 512.002 512.002;" xml:space="preserve">
<path style="fill:#8DC63F;" d="M204.983,174.481l93.897-136.045C316.623,12.824,339.54,0,367.648,0
	c22.917,0,42.747,8.144,59.51,24.392c16.756,16.278,25.141,35.743,25.141,58.416c0,16.763-4.437,31.546-13.307,44.372
	l-84.659,123.09l103.509,131.232c10.351,13.073,15.527,28.351,15.527,45.836c0,23.177-8.134,43.069-24.397,59.709
	c-16.27,16.64-35.987,24.955-59.153,24.955c-25.383,0-44.723-8.248-58.033-24.774l-126.8-158.213v87.241
	c0,24.897-4.313,44.239-12.937,58.044c-15.775,25.132-38.695,37.7-68.762,37.7c-27.353,0-48.553-9.238-63.587-27.723
	c-14.046-17.01-21.067-39.559-21.067-67.652V93.15c0-26.602,7.144-48.539,21.437-65.789C75.104,9.124,95.801,0,122.178,0
	c25.138,0,46.083,9.124,62.846,27.361c9.363,10.114,15.276,20.332,17.743,30.681c1.476,6.403,2.217,18.352,2.217,35.859V174.481z"/>
<g>
</g>
<g>
</g>
<g>
</g>
<g>
</g>
<g>
</g>
<g>
</g>
<g>
</g>
<g>
</g>
<g>
</g>
<g>
</g>
<g>
</g>
<g>
</g>
<g>
</g>
<g>
</g>
<g>
</g>
</svg>
