<?xml version="1.0" encoding="iso-8859-1"?>
<!-- Generator: Adobe Illustrator 19.0.0, SVG Export Plug-In . SVG Version: 6.00 Build 0)  -->
<svg version="1.1" id="Layer_1" xmlns="http://www.w3.org/2000/svg" xmlns:xlink="http://www.w3.org/1999/xlink" x="0px" y="0px"
	 viewBox="0 0 512 512" style="enable-background:new 0 0 512 512;" xml:space="preserve">
<path style="fill:#B4002B;" d="M429.864,220.006c-4.369-1.495-8.597-2.882-12.657-4.216c-32.224-10.567-43.366-15.136-43.366-33.078
	c0-15.558,11.051-26.429,26.873-26.429c12.98,0,21.946,5.375,30.946,18.546c3.504,5.133,10.318,6.807,15.801,3.883l31.123-16.587
	c2.864-1.525,5-4.13,5.936-7.238c0.936-3.105,0.597-6.458-0.946-9.312c-18.079-33.477-45.368-50.447-81.107-50.447
	c-26.969,0-49.815,8.496-66.079,24.571c-16.121,15.934-24.641,38.12-24.641,64.156c0,54.625,34.616,77.219,94.375,97.777
	c34.206,11.883,42.203,16.477,42.203,34.33c0,22.07-19.061,38.09-45.324,38.09c-0.79,0-1.593-0.013-2.406-0.041
	c-28.245-0.987-36.937-14.772-50.044-45.994c-21.044-50.085-45.644-110.095-47.47-114.66c-0.02-0.05-0.041-0.104-0.06-0.156
	c-26.682-64.26-79.737-101.114-145.562-101.114C70.635,92.085,0,165.628,0,256.029c0,90.369,70.635,163.886,157.457,163.886
	c47.489,0,91.931-21.927,121.931-60.162c2.721-3.467,3.355-8.133,1.666-12.203l-18.759-45.155
	c-1.829-4.406-6.061-7.337-10.825-7.508c-4.787-0.171-9.19,2.458-11.331,6.721c-16.217,32.345-47.899,52.439-82.682,52.439
	c-51.457,0-93.321-43.972-93.321-98.016c0-54.061,41.864-98.044,93.321-98.044c37.431,0,71.68,23.199,85.223,57.728
	c0.037,0.089,0.073,0.18,0.111,0.27l46.444,110.498l5.352,12.381c22.448,54.617,55.707,79.079,107.86,79.314h0.216
	c62.331,0,109.337-43.396,109.337-100.942C512,259.534,480.565,237.251,429.864,220.006z"/>
<g>
</g>
<g>
</g>
<g>
</g>
<g>
</g>
<g>
</g>
<g>
</g>
<g>
</g>
<g>
</g>
<g>
</g>
<g>
</g>
<g>
</g>
<g>
</g>
<g>
</g>
<g>
</g>
<g>
</g>
</svg>
