<?xml version="1.0" encoding="iso-8859-1"?>
<!-- Generator: Adobe Illustrator 19.0.0, SVG Export Plug-In . SVG Version: 6.00 Build 0)  -->
<svg version="1.1" id="Layer_1" xmlns="http://www.w3.org/2000/svg" xmlns:xlink="http://www.w3.org/1999/xlink" x="0px" y="0px"
	 viewBox="0 0 512 512" style="enable-background:new 0 0 512 512;" xml:space="preserve">
<g>
	<path style="fill:#2D50A8;" d="M422.851,261.438c45.106,0,81.804-36.579,81.804-81.54c0-44.963-36.696-81.543-81.804-81.543
		c-45.126,0-81.839,36.579-81.839,81.543C341.012,224.86,377.726,261.438,422.851,261.438z"/>
	<path style="fill:#2D50A8;" d="M240.499,275.107c41.031,0,74.414-33.269,74.414-74.164c0-40.903-33.382-74.176-74.414-74.176
		c-41.036,0-74.422,33.272-74.422,74.176C166.077,241.838,199.463,275.107,240.499,275.107z"/>
	<path style="fill:#2D50A8;" d="M73.688,287.401c37.359,0,67.753-30.282,67.753-67.503c0-37.233-30.394-67.523-67.753-67.523
		c-37.357,0-67.752,30.29-67.752,67.523C5.936,257.12,36.33,287.401,73.688,287.401z"/>
	<path style="fill:#2D50A8;" d="M73.689,301.047C29.611,301.047,0,340.162,0,376.692v23.218c0,7.573,6.169,13.734,13.748,13.734
		h119.864c7.588,0,13.76-6.161,13.76-13.734v-23.218C147.372,340.162,117.765,301.047,73.689,301.047z"/>
	<path style="fill:#2D50A8;" d="M240.496,290.247c-48.465,0-81.022,43.019-81.022,83.194v25.8c0,7.942,6.467,14.403,14.417,14.403
		h133.191c7.958,0,14.431-6.461,14.431-14.403v-25.8C321.513,333.265,288.957,290.247,240.496,290.247z"/>
	<path style="fill:#2D50A8;" d="M422.842,278.266c-53.332,0-89.158,47.352-89.158,91.575v28.664c0,8.349,6.8,15.14,15.158,15.14
		h147.982c8.369,0,15.175-6.791,15.175-15.14v-28.664C512,325.616,476.174,278.266,422.842,278.266z"/>
</g>
<g>
</g>
<g>
</g>
<g>
</g>
<g>
</g>
<g>
</g>
<g>
</g>
<g>
</g>
<g>
</g>
<g>
</g>
<g>
</g>
<g>
</g>
<g>
</g>
<g>
</g>
<g>
</g>
<g>
</g>
</svg>
