<?xml version="1.0" encoding="iso-8859-1"?>
<!-- Generator: Adobe Illustrator 19.0.0, SVG Export Plug-In . SVG Version: 6.00 Build 0)  -->
<svg version="1.1" id="Layer_1" xmlns="http://www.w3.org/2000/svg" xmlns:xlink="http://www.w3.org/1999/xlink" x="0px" y="0px"
	 viewBox="0 0 512 512" style="enable-background:new 0 0 512 512;" xml:space="preserve">
<path style="fill:#D7143A;" d="M361.54,23.472c-33.4-15.169-68.896-22.936-105.554-22.936c-30.522,0-60.534,5.871-89.4,16.691
	c6.77,6.141,186.211,169.008,194.953,176.954C361.54,182.429,361.54,27.087,361.54,23.472z"/>
<path style="fill:#2D50A8;" d="M124.216,475.179c0-10.01,0-208.317,0-220.122c-8.557,7.782-102.825,93.466-105.774,96.133
	C38.963,402.647,76.413,446.285,124.216,475.179z"/>
<path style="fill:#7F40BD;" d="M0,256.536c0,21.982,3.318,44.334,9.296,66.502c6.938-6.313,222.481-202.138,226.917-206.177
	c-4.33-3.932-93.959-85.289-96.874-87.943C53.383,73.037,0,160.01,0,256.536z"/>
<path style="fill:#679D5F;" d="M151.112,367.793c0,5.316,0,118.485,0,122.138c26.013,11.684,53.233,18.929,81.248,21.533h47.01
	c88.422-8.24,167.354-62.751,206.582-143.672C476.706,367.793,156.614,367.793,151.112,367.793z"/>
<path style="fill:#F1CB30;" d="M388.531,38.164c0,10.155,0,297.197,0,302.655c5.265,0,104.875,0,108.933,0
	C507.008,313.547,512,285.208,512,256.534C512,167.572,464.698,84.519,388.531,38.164z"/>
<g>
</g>
<g>
</g>
<g>
</g>
<g>
</g>
<g>
</g>
<g>
</g>
<g>
</g>
<g>
</g>
<g>
</g>
<g>
</g>
<g>
</g>
<g>
</g>
<g>
</g>
<g>
</g>
<g>
</g>
</svg>
