<?xml version="1.0" encoding="iso-8859-1"?>
<!-- Generator: Adobe Illustrator 19.0.0, SVG Export Plug-In . SVG Version: 6.00 Build 0)  -->
<svg version="1.1" id="Layer_1" xmlns="http://www.w3.org/2000/svg" xmlns:xlink="http://www.w3.org/1999/xlink" x="0px" y="0px"
	 viewBox="0 0 512 512" style="enable-background:new 0 0 512 512;" xml:space="preserve">
<path style="fill:#79A937;" d="M180.693,256c0,1.749-0.394,3.388-0.5,5.139l183.443,91.723
	c15.724-13.307,35.806-21.612,57.999-21.612c49.91,0,90.363,40.445,90.363,90.361C512,471.555,471.547,512,421.637,512
	c-49.944,0-90.332-40.445-90.332-90.388c0-1.807,0.389-3.417,0.5-5.175L148.357,324.75c-15.77,13.251-35.802,21.555-57.996,21.555
	C40.446,346.305,0,305.888,0,256c0-49.94,40.446-90.388,90.359-90.388c22.195,0,42.247,8.334,57.996,21.583l183.448-91.692
	c-0.111-1.749-0.5-3.391-0.5-5.199C331.305,40.448,371.693,0,421.637,0C471.547,0,512,40.448,512,90.305
	c0,49.949-40.453,90.39-90.363,90.39c-22.25,0-42.303-8.339-57.999-21.641L180.195,250.81
	C180.299,252.559,180.693,254.194,180.693,256L180.693,256z"/>
<g>
</g>
<g>
</g>
<g>
</g>
<g>
</g>
<g>
</g>
<g>
</g>
<g>
</g>
<g>
</g>
<g>
</g>
<g>
</g>
<g>
</g>
<g>
</g>
<g>
</g>
<g>
</g>
<g>
</g>
</svg>
