<?xml version="1.0" encoding="iso-8859-1"?>
<!-- Generator: Adobe Illustrator 19.0.0, SVG Export Plug-In . SVG Version: 6.00 Build 0)  -->
<svg version="1.1" id="Layer_1" xmlns="http://www.w3.org/2000/svg" xmlns:xlink="http://www.w3.org/1999/xlink" x="0px" y="0px"
	 viewBox="0 0 512 512" style="enable-background:new 0 0 512 512;" xml:space="preserve">
<g>
	<path style="fill:#DB380E;" d="M274.003,207.943c0,4.56,3.696,8.258,8.258,8.258h84.48c4.562,0,8.258-3.698,8.258-8.258v-32.048
		c0-65.67-53.382-119.093-118.997-119.093c-65.622,0-119.007,53.425-119.007,119.093v157.356c0,9.925-8.071,17.999-17.991,17.999
		c-9.926,0-17.999-8.076-17.999-17.999v-69.926c0-4.56-3.696-8.258-8.258-8.258H8.258c-4.562,0-8.258,3.698-8.258,8.258v72.78
		c0,65.67,53.385,119.093,119.007,119.093c65.615,0,118.997-53.425,118.997-119.093v-160.21c0-9.918,8.075-17.988,17.999-17.988
		c9.926,0,17.999,8.07,17.999,17.988V207.943z"/>
	<path style="fill:#DB380E;" d="M503.742,256.495h-84.483c-4.562,0-8.258,3.698-8.258,8.258v71.351
		c0,9.925-8.075,17.999-17.999,17.999c-9.926,0-17.999-8.076-17.999-17.999v-71.351c0-4.56-3.696-8.258-8.258-8.258h-84.483
		c-4.562,0-8.258,3.698-8.258,8.258v71.351c0,65.67,53.382,119.093,118.997,119.093c65.617,0,119-53.425,119-119.093v-71.351
		C512,260.193,508.304,256.495,503.742,256.495z"/>
</g>
<g>
</g>
<g>
</g>
<g>
</g>
<g>
</g>
<g>
</g>
<g>
</g>
<g>
</g>
<g>
</g>
<g>
</g>
<g>
</g>
<g>
</g>
<g>
</g>
<g>
</g>
<g>
</g>
<g>
</g>
</svg>
