<?xml version="1.0" encoding="iso-8859-1"?>
<!-- Generator: Adobe Illustrator 19.0.0, SVG Export Plug-In . SVG Version: 6.00 Build 0)  -->
<svg version="1.1" id="Layer_1" xmlns="http://www.w3.org/2000/svg" xmlns:xlink="http://www.w3.org/1999/xlink" x="0px" y="0px"
	 viewBox="0 0 512.001 512.001" style="enable-background:new 0 0 512.001 512.001;" xml:space="preserve">
<path style="fill:#73A1FB;" d="M509.822,117.385c3.82-21.438,3.734-43.481-9.506-60.152c-18.473-23.375-57.793-24.235-84.729-20.11
	c-21.914,3.35-96.033,36.052-121.254,114.339c44.684-3.395,68.103,3.222,63.804,52.419c-1.801,20.584-12.199,43.134-23.803,64.753
	c-13.409,24.923-38.542,73.86-71.499,38.584c-29.686-31.748-27.457-92.468-34.244-132.9c-3.78-22.685-7.777-50.956-15.21-74.29
	c-6.405-20.065-21.093-44.257-39.055-49.5c-19.292-5.67-43.145,3.18-57.151,11.431C72.571,88.168,38.579,125.463,0,156.229l0,0
	c6.281,13.455,9.706,22.173,20.963,23.806c26.558,3.912,51.867-24.75,69.523,5.071c10.742,18.219,14.097,38.197,20.97,57.841
	c9.194,26.16,16.283,54.648,23.803,84.729c12.718,50.956,28.361,127.096,72.404,145.746c22.47,9.542,56.247-3.224,73.348-13.365
	c46.319-27.411,82.413-67.154,113.308-107.589C464.956,256.774,503.929,148.366,509.822,117.385z"/>
<g>
</g>
<g>
</g>
<g>
</g>
<g>
</g>
<g>
</g>
<g>
</g>
<g>
</g>
<g>
</g>
<g>
</g>
<g>
</g>
<g>
</g>
<g>
</g>
<g>
</g>
<g>
</g>
<g>
</g>
</svg>
